# xmcd
#
# Track frame offsets:
#	187
#	23392
#	50500
#	59957
#	79787
#	101077
#	124865
#	154372
#	171757
#	195527
#	213187
#	226990
#	249782
#	262152
#	278460
#
# Disc length: 4309 seconds
#
# Revision: 1
# Processed by: cddbd v1.5.1PL0 Copyright (c) Steve Scherf et al.
# Submitted via: CDex 1.50Beta5
#
DISCID=cb10d30f
DTITLE=さまざまなアーティスト - ショパン・ピアノ名曲集
DYEAR=1900
DGENRE=Classical
TTITLE0=ブーニン/華麗なる大円舞曲変ホ長調
TTITLE1=ブーニン/華麗なる円舞曲 イ短調
TTITLE2=ブーニン/小犬のワルツ
TTITLE3=ブーニン/ワルツ第7番 嬰ハ短調
TTITLE4=ダン・タイ・ソン/幻想即興曲
TTITLE5=ダン・タイ・ソン/軍隊ポロネーズ
TTITLE6=ダン・タイ・ソン/英雄ポロネーズ
TTITLE7=ダン・タイ・ソン/別れの曲
TTITLE8=ダン・タイ・ソン/ノクターン第1番変ロ短調
TTITLE9=ダン・タイ・ソン/ノクターン第2番変ホ長調
TTITLE10=ダン・タイ・ソン/ノクターン第5番嬰へ長調
TTITLE11=ダン・タイ・ソン/雨だれ前奏曲 変ニ長調
TTITLE12=リューボフ・チモフェーエワ/革命(練習曲)
TTITLE13=リューボフ・チモフェーエワ/木枯らし(練習曲)
TTITLE14=フー・ツォン/バラード第1番ト短調
EXTD=
EXTT0=
EXTT1=
EXTT2=
EXTT3=
EXTT4=
EXTT5=
EXTT6=
EXTT7=
EXTT8=
EXTT9=
EXTT10=
EXTT11=
EXTT12=
EXTT13=
EXTT14=
PLAYORDER=
